<svg id="icons" xmlns="http://www.w3.org/2000/svg" viewBox="0 0 792 299.67"><defs><style>.cls-1{fill:#9f2243;}.cls-2{fill:#fff;}.cls-3{fill:#3c3c3b;}.cls-4{fill:#ac955c;}.cls-5{fill:none;}</style></defs><title>Logo SSADII_4 OK</title><rect class="cls-1" x="40.13" y="47.12" width="212.66" height="212.66" rx="39.26" ry="39.26"/><circle class="cls-2" cx="146.46" cy="153.45" r="76.7"/><path class="cls-3" d="M305.58,171a16.59,16.59,0,0,1-11.06-4.17l3.39-4.06a12,12,0,0,0,7.78,3.17c2.35,0,3.76-.93,3.76-2.46v-.07c0-1.45-.89-2.2-5.25-3.32-5.25-1.34-8.64-2.79-8.64-8V152c0-4.73,3.8-7.86,9.13-7.86a15.09,15.09,0,0,1,9.68,3.32l-3,4.32a12.24,12.24,0,0,0-6.78-2.57c-2.2,0-3.35,1-3.35,2.27v.07c0,1.71,1.12,2.27,5.62,3.43,5.29,1.38,8.27,3.28,8.27,7.82v.07C315.15,168.1,311.2,171,305.58,171Z"/><path class="cls-3" d="M319.66,148.47v-5h6v5Zm.15,22.16v-20h5.66v20Z"/><path class="cls-3" d="M337.8,171a14,14,0,0,1-8.57-3l2.42-3.72a11.29,11.29,0,0,0,6.29,2.38c1.64,0,2.38-.6,2.38-1.49v-.07c0-1.23-1.94-1.64-4.13-2.31-2.79-.82-6-2.12-6-6v-.08c0-4.06,3.28-6.33,7.3-6.33a13.82,13.82,0,0,1,7.45,2.31l-2.16,3.91a11.83,11.83,0,0,0-5.4-1.86c-1.38,0-2.09.6-2.09,1.38v.07c0,1.12,1.9,1.64,4.06,2.38,2.79.93,6,2.27,6,5.92v.07C345.43,169,342.12,171,337.8,171Z"/><path class="cls-3" d="M355.86,171c-3.46,0-5.81-1.38-5.81-6v-9.46h-2.38v-4.84h2.38v-5.1h5.66v5.1h4.69v4.84h-4.69V164c0,1.3.56,1.94,1.83,1.94a5.77,5.77,0,0,0,2.79-.71v4.54A8.35,8.35,0,0,1,355.86,171Z"/><path class="cls-3" d="M382.57,162.63H368.67a4.63,4.63,0,0,0,4.88,3.91,6.54,6.54,0,0,0,4.84-2l3.24,2.87a10,10,0,0,1-8.16,3.72c-6,0-10.43-4.21-10.43-10.32v-.08c0-5.7,4.06-10.39,9.87-10.39,6.67,0,9.72,5.18,9.72,10.84v.07C382.64,161.77,382.61,162.11,382.57,162.63Zm-9.65-7.79c-2.35,0-3.87,1.68-4.32,4.25h8.53C376.79,156.56,375.3,154.84,372.92,154.84Z"/><path class="cls-3" d="M411.66,170.63V159.5c0-2.68-1.19-4.06-3.31-4.06s-3.43,1.38-3.43,4.06v11.14h-5.66V159.5c0-2.68-1.19-4.06-3.31-4.06s-3.43,1.38-3.43,4.06v11.14h-5.66v-20h5.66v2.83a7.13,7.13,0,0,1,5.88-3.2,6,6,0,0,1,5.62,3.17,8.22,8.22,0,0,1,6.56-3.17c4.21,0,6.74,2.53,6.74,7.34v13Z"/><path class="cls-3" d="M433.93,170.63v-2.16a7.68,7.68,0,0,1-6,2.53c-3.76,0-6.85-2.16-6.85-6.11v-.07c0-4.36,3.32-6.37,8-6.37a14.18,14.18,0,0,1,4.88.82v-.33c0-2.35-1.45-3.65-4.28-3.65a14.7,14.7,0,0,0-5.51,1.08L422.76,152a17.61,17.61,0,0,1,7.75-1.6c6.18,0,8.9,3.2,8.9,8.6v11.58Zm.11-8a8.77,8.77,0,0,0-3.61-.75c-2.42,0-3.91,1-3.91,2.76v.07c0,1.53,1.27,2.42,3.09,2.42,2.64,0,4.43-1.45,4.43-3.5Z"/><path class="cls-3" d="M469.87,170.63v-2.87a7.33,7.33,0,0,1-6.22,3.24c-4.66,0-9.09-3.65-9.09-10.32v-.07c0-6.67,4.36-10.32,9.09-10.32a7.67,7.67,0,0,1,6.22,3v-9.83h5.66v27.19Zm.07-10c0-3.31-2.2-5.51-4.84-5.51s-4.88,2.16-4.88,5.51v.07c0,3.32,2.23,5.51,4.88,5.51s4.84-2.2,4.84-5.51Z"/><path class="cls-3" d="M499.15,162.63H485.26a4.63,4.63,0,0,0,4.88,3.91,6.54,6.54,0,0,0,4.84-2l3.24,2.87a10,10,0,0,1-8.16,3.72c-6,0-10.43-4.21-10.43-10.32v-.08c0-5.7,4.06-10.39,9.87-10.39,6.67,0,9.72,5.18,9.72,10.84v.07C499.22,161.77,499.19,162.11,499.15,162.63Zm-9.65-7.79c-2.35,0-3.87,1.68-4.32,4.25h8.53C493.38,156.56,491.89,154.84,489.5,154.84Z"/><path class="cls-3" d="M524.48,171a16.59,16.59,0,0,1-11.06-4.17l3.39-4.06a12,12,0,0,0,7.78,3.17c2.35,0,3.76-.93,3.76-2.46v-.07c0-1.45-.89-2.2-5.25-3.32-5.25-1.34-8.64-2.79-8.64-8V152c0-4.73,3.8-7.86,9.13-7.86a15.09,15.09,0,0,1,9.68,3.32l-3,4.32a12.24,12.24,0,0,0-6.78-2.57c-2.2,0-3.35,1-3.35,2.27v.07c0,1.71,1.12,2.27,5.62,3.43,5.29,1.38,8.27,3.28,8.27,7.82v.07C534.05,168.1,530.1,171,524.48,171Z"/><path class="cls-3" d="M550.14,170.63v-2.16a7.68,7.68,0,0,1-6,2.53c-3.76,0-6.85-2.16-6.85-6.11v-.07c0-4.36,3.32-6.37,8-6.37a14.18,14.18,0,0,1,4.88.82v-.33c0-2.35-1.45-3.65-4.28-3.65a14.7,14.7,0,0,0-5.51,1.08L539,152a17.61,17.61,0,0,1,7.75-1.6c6.18,0,8.9,3.2,8.9,8.6v11.58Zm.11-8a8.77,8.77,0,0,0-3.61-.75c-2.42,0-3.91,1-3.91,2.76v.07c0,1.53,1.27,2.42,3.09,2.42,2.64,0,4.43-1.45,4.43-3.5Z"/><path class="cls-3" d="M560.76,170.63V143.44h5.66v27.19Z"/><path class="cls-3" d="M584.22,170.63V167.8a7.06,7.06,0,0,1-5.85,3.2c-4.28,0-6.78-2.83-6.78-7.41V150.67h5.66v11.14c0,2.68,1.27,4.06,3.43,4.06s3.54-1.38,3.54-4.06V150.67h5.66v20Z"/><path class="cls-3" d="M609.36,170.63v-2.87a7.33,7.33,0,0,1-6.22,3.24c-4.66,0-9.09-3.65-9.09-10.32v-.07c0-6.67,4.36-10.32,9.09-10.32a7.67,7.67,0,0,1,6.22,3v-9.83H615v27.19Zm.07-10c0-3.31-2.2-5.51-4.84-5.51s-4.88,2.16-4.88,5.51v.07c0,3.32,2.23,5.51,4.88,5.51s4.84-2.2,4.84-5.51Z"/><path class="cls-3" d="M307.59,215.7a7.67,7.67,0,0,1-6.22-3v8.57h-5.66V195.37h5.66v2.87a7.33,7.33,0,0,1,6.22-3.24c4.66,0,9.09,3.65,9.09,10.32v.07C316.68,212.05,312.32,215.7,307.59,215.7ZM311,205.31c0-3.31-2.23-5.51-4.88-5.51s-4.84,2.2-4.84,5.51v.07c0,3.32,2.2,5.51,4.84,5.51s4.88-2.16,4.88-5.51Z"/><path class="cls-3" d="M332.54,215.33v-2.16a7.68,7.68,0,0,1-6,2.53c-3.76,0-6.85-2.16-6.85-6.11v-.07c0-4.36,3.32-6.37,8-6.37a14.18,14.18,0,0,1,4.88.82v-.33c0-2.35-1.45-3.65-4.28-3.65a14.7,14.7,0,0,0-5.51,1.08l-1.42-4.32a17.61,17.61,0,0,1,7.75-1.6c6.18,0,8.9,3.2,8.9,8.6v11.58Zm.11-8a8.77,8.77,0,0,0-3.61-.75c-2.42,0-3.91,1-3.91,2.76v.07c0,1.53,1.27,2.42,3.09,2.42,2.64,0,4.43-1.45,4.43-3.5Z"/><path class="cls-3" d="M354.63,200.92c-3.76,0-6.07,2.27-6.07,7v7.38H342.9v-20h5.66v4c1.15-2.76,3-4.54,6.37-4.4v5.92Z"/><path class="cls-3" d="M369.23,215.33v-2.16a7.68,7.68,0,0,1-6,2.53c-3.76,0-6.85-2.16-6.85-6.11v-.07c0-4.36,3.32-6.37,8-6.37a14.18,14.18,0,0,1,4.88.82v-.33c0-2.35-1.45-3.65-4.28-3.65a14.7,14.7,0,0,0-5.51,1.08l-1.42-4.32a17.61,17.61,0,0,1,7.75-1.6c6.18,0,8.9,3.2,8.9,8.6v11.58Zm.11-8a8.77,8.77,0,0,0-3.61-.75c-2.42,0-3.91,1-3.91,2.76v.07c0,1.53,1.27,2.42,3.09,2.42,2.64,0,4.43-1.45,4.43-3.5Z"/><path class="cls-3" d="M391,215.33V188.14h5.66v27.19Z"/><path class="cls-3" d="M413.71,215.33v-2.16a7.68,7.68,0,0,1-6,2.53c-3.76,0-6.85-2.16-6.85-6.11v-.07c0-4.36,3.32-6.37,8-6.37a14.18,14.18,0,0,1,4.88.82v-.33c0-2.35-1.45-3.65-4.28-3.65a14.7,14.7,0,0,0-5.51,1.08l-1.42-4.32a17.61,17.61,0,0,1,7.75-1.6c6.18,0,8.9,3.2,8.9,8.6v11.58Zm.11-8a8.77,8.77,0,0,0-3.61-.75c-2.42,0-3.91,1-3.91,2.76v.07c0,1.53,1.27,2.42,3.09,2.42,2.64,0,4.43-1.45,4.43-3.5Z"/><path class="cls-3" d="M455.24,215.33l-2.38-5.85h-11l-2.38,5.85h-5.85l11.17-26.26h5.29l11.17,26.26ZM447.34,196l-3.46,8.46h6.93Z"/><path class="cls-3" d="M478.14,215.33v-2.87a7.33,7.33,0,0,1-6.22,3.24c-4.66,0-9.09-3.65-9.09-10.32v-.07c0-6.67,4.36-10.32,9.09-10.32a7.67,7.67,0,0,1,6.22,3v-9.83h5.66v27.19Zm.07-10c0-3.31-2.2-5.51-4.84-5.51s-4.88,2.16-4.88,5.51v.07c0,3.32,2.23,5.51,4.88,5.51s4.84-2.2,4.84-5.51Z"/><path class="cls-3" d="M513.68,215.33V204.2c0-2.68-1.19-4.06-3.31-4.06s-3.43,1.38-3.43,4.06v11.14h-5.66V204.2c0-2.68-1.19-4.06-3.31-4.06s-3.43,1.38-3.43,4.06v11.14h-5.66v-20h5.66v2.83a7.13,7.13,0,0,1,5.88-3.2,6,6,0,0,1,5.62,3.17A8.22,8.22,0,0,1,512.6,195c4.21,0,6.74,2.53,6.74,7.34v13Z"/><path class="cls-3" d="M524.37,193.17v-5h6v5Zm.15,22.16v-20h5.66v20Z"/><path class="cls-3" d="M548.13,215.33V204.2c0-2.68-1.27-4.06-3.43-4.06s-3.54,1.38-3.54,4.06v11.14H535.5v-20h5.66v2.83A7.06,7.06,0,0,1,547,195c4.28,0,6.78,2.83,6.78,7.41v12.92Z"/><path class="cls-3" d="M558.82,193.17v-5h6v5Zm.15,22.16v-20h5.66v20Z"/><path class="cls-3" d="M577,215.7a14,14,0,0,1-8.57-3l2.42-3.72a11.29,11.29,0,0,0,6.29,2.38c1.64,0,2.38-.6,2.38-1.49v-.07c0-1.23-1.94-1.64-4.13-2.31-2.79-.82-6-2.12-6-6v-.08c0-4.06,3.28-6.33,7.3-6.33a13.82,13.82,0,0,1,7.45,2.31L582,201.29a11.83,11.83,0,0,0-5.4-1.86c-1.38,0-2.09.6-2.09,1.38v.07c0,1.12,1.9,1.64,4.06,2.38,2.79.93,6,2.27,6,5.92v.07C584.59,213.69,581.28,215.7,577,215.7Z"/><path class="cls-3" d="M595,215.67c-3.46,0-5.81-1.38-5.81-6v-9.46h-2.38v-4.84h2.38v-5.1h5.66v5.1h4.69v4.84h-4.69v8.53c0,1.3.56,1.94,1.83,1.94a5.77,5.77,0,0,0,2.79-.71v4.54A8.35,8.35,0,0,1,595,215.67Z"/><path class="cls-3" d="M615.47,200.92c-3.76,0-6.07,2.27-6.07,7v7.38h-5.66v-20h5.66v4c1.15-2.76,3-4.54,6.37-4.4v5.92Z"/><path class="cls-3" d="M630.07,215.33v-2.16a7.68,7.68,0,0,1-6,2.53c-3.76,0-6.85-2.16-6.85-6.11v-.07c0-4.36,3.32-6.37,8-6.37a14.18,14.18,0,0,1,4.88.82v-.33c0-2.35-1.45-3.65-4.28-3.65a14.7,14.7,0,0,0-5.51,1.08l-1.42-4.32a17.61,17.61,0,0,1,7.75-1.6c6.18,0,8.9,3.2,8.9,8.6v11.58Zm.11-8a8.77,8.77,0,0,0-3.61-.75c-2.42,0-3.91,1-3.91,2.76v.07c0,1.53,1.27,2.42,3.09,2.42,2.64,0,4.43-1.45,4.43-3.5Z"/><path class="cls-3" d="M649.85,215.78a10.19,10.19,0,0,1-10.39-10.32v-.08A10.25,10.25,0,0,1,649.92,195a9.82,9.82,0,0,1,8,3.35l-3.46,3.72a5.83,5.83,0,0,0-4.54-2.2c-2.83,0-4.84,2.5-4.84,5.44v.07c0,3.05,2,5.51,5.07,5.51a6.32,6.32,0,0,0,4.58-2.12l3.32,3.35A10.05,10.05,0,0,1,649.85,215.78Z"/><path class="cls-3" d="M661.81,193.17v-5h6v5Zm.15,22.16v-20h5.66v20Z"/><path class="cls-3" d="M682.74,215.78c-6.18,0-10.76-4.58-10.76-10.32v-.08A10.48,10.48,0,0,1,682.81,195c6.18,0,10.76,4.58,10.76,10.32v.07A10.48,10.48,0,0,1,682.74,215.78ZM688,205.39a5.3,5.3,0,0,0-5.25-5.51,5.11,5.11,0,0,0-5.18,5.44v.07a5.3,5.3,0,0,0,5.25,5.51,5.11,5.11,0,0,0,5.18-5.44Zm-7.37-12.22,4.21-6.59,4.88,2.12-4.77,4.47Z"/><path class="cls-3" d="M710.3,215.33V204.2c0-2.68-1.27-4.06-3.43-4.06s-3.54,1.38-3.54,4.06v11.14h-5.66v-20h5.66v2.83a7.06,7.06,0,0,1,5.85-3.2c4.28,0,6.78,2.83,6.78,7.41v12.92Z"/><path class="cls-3" d="M743.38,215.82c-1.53,4.06-3.17,5.59-6.55,5.59a9.37,9.37,0,0,1-5-1.38l1.9-4.1a5.14,5.14,0,0,0,2.42.78,1.89,1.89,0,0,0,2-1.3l-7.82-20h6L740.81,209l4.36-13.59H751Z"/><path class="cls-3" d="M306.47,260H296.3V234h10.17c8.19,0,13.86,5.62,13.86,13V247C320.33,254.33,314.67,260,306.47,260Zm7.86-13a7.49,7.49,0,0,0-7.86-7.86H302v15.72h4.43a7.43,7.43,0,0,0,7.86-7.78Z"/><path class="cls-3" d="M324.95,237.87v-5h6v5ZM325.1,260v-20h5.66v20Z"/><path class="cls-3" d="M343.09,260.4a14,14,0,0,1-8.57-3l2.42-3.72a11.29,11.29,0,0,0,6.29,2.38c1.64,0,2.38-.6,2.38-1.49v-.07c0-1.23-1.94-1.64-4.13-2.31-2.79-.82-6-2.12-6-6v-.08c0-4.06,3.28-6.33,7.3-6.33a13.82,13.82,0,0,1,7.45,2.31L348.11,246a11.83,11.83,0,0,0-5.4-1.86c-1.38,0-2.09.6-2.09,1.38v.07c0,1.12,1.9,1.64,4.06,2.38,2.79.93,6,2.27,6,5.92V254C350.72,258.39,347.41,260.4,343.09,260.4Z"/><path class="cls-3" d="M361.15,260.36c-3.46,0-5.81-1.38-5.81-6v-9.46H353v-4.84h2.38V235H361v5.1h4.69v4.84H361v8.53c0,1.3.56,1.94,1.83,1.94a5.77,5.77,0,0,0,2.79-.71v4.54A8.35,8.35,0,0,1,361.15,260.36Z"/><path class="cls-3" d="M381.6,245.61c-3.76,0-6.07,2.27-6.07,7V260h-5.66v-20h5.66v4c1.15-2.76,3-4.54,6.37-4.4v5.92Z"/><path class="cls-3" d="M385.55,237.87v-5h6v5ZM385.7,260v-20h5.66v20Z"/><path class="cls-3" d="M408.57,260.4a7.67,7.67,0,0,1-6.22-3V260h-5.66V232.84h5.66v10.09a7.33,7.33,0,0,1,6.22-3.24c4.66,0,9.09,3.65,9.09,10.32v.07C417.65,256.75,413.3,260.4,408.57,260.4ZM412,250c0-3.31-2.23-5.51-4.88-5.51s-4.84,2.2-4.84,5.51v.07c0,3.32,2.2,5.51,4.84,5.51s4.88-2.16,4.88-5.51Z"/><path class="cls-3" d="M434.3,260V257.2a7.06,7.06,0,0,1-5.85,3.2c-4.28,0-6.78-2.83-6.78-7.41V240.06h5.66V251.2c0,2.68,1.27,4.06,3.43,4.06s3.54-1.38,3.54-4.06V240.06H440v20Z"/><path class="cls-3" d="M454.45,260.48a10.19,10.19,0,0,1-10.39-10.32v-.08a10.25,10.25,0,0,1,10.47-10.39,9.82,9.82,0,0,1,8,3.35L459,246.77a5.83,5.83,0,0,0-4.54-2.2c-2.83,0-4.84,2.5-4.84,5.44v.07c0,3.05,2,5.51,5.07,5.51a6.32,6.32,0,0,0,4.58-2.12l3.32,3.35A10.05,10.05,0,0,1,454.45,260.48Z"/><path class="cls-3" d="M466.41,237.87v-5h6v5Zm.15,22.16v-20h5.66v20Z"/><path class="cls-3" d="M487.34,260.48c-6.18,0-10.76-4.58-10.76-10.32v-.08a10.48,10.48,0,0,1,10.84-10.39c6.18,0,10.76,4.58,10.76,10.32v.07A10.48,10.48,0,0,1,487.34,260.48Zm5.25-10.39a5.3,5.3,0,0,0-5.25-5.51,5.11,5.11,0,0,0-5.18,5.44v.07a5.3,5.3,0,0,0,5.25,5.51,5.11,5.11,0,0,0,5.18-5.44Zm-7.37-12.22,4.21-6.59,4.88,2.12-4.77,4.47Z"/><path class="cls-3" d="M514.9,260V248.89c0-2.68-1.27-4.06-3.43-4.06s-3.54,1.38-3.54,4.06V260h-5.66v-20h5.66v2.83a7.06,7.06,0,0,1,5.85-3.2c4.28,0,6.78,2.83,6.78,7.41V260Z"/><path class="cls-3" d="M551.07,260v-2.87a7.33,7.33,0,0,1-6.22,3.24c-4.66,0-9.09-3.65-9.09-10.32V250c0-6.67,4.36-10.32,9.09-10.32a7.67,7.67,0,0,1,6.22,3v-9.83h5.66V260Zm.07-10c0-3.31-2.2-5.51-4.84-5.51s-4.88,2.16-4.88,5.51v.07c0,3.32,2.23,5.51,4.88,5.51s4.84-2.2,4.84-5.51Z"/><path class="cls-3" d="M580.35,252H566.45a4.63,4.63,0,0,0,4.88,3.91,6.54,6.54,0,0,0,4.84-2l3.24,2.87a10,10,0,0,1-8.16,3.72c-6,0-10.43-4.21-10.43-10.32v-.08c0-5.7,4.06-10.39,9.87-10.39,6.67,0,9.72,5.18,9.72,10.84v.07C580.42,251.16,580.38,251.5,580.35,252Zm-9.65-7.79c-2.35,0-3.87,1.68-4.32,4.25h8.53C574.57,245.95,573.08,244.24,570.7,244.24Z"/><path class="cls-3" d="M596.66,260V234h5.74V260Z"/><path class="cls-3" d="M620.94,260V248.89c0-2.68-1.27-4.06-3.43-4.06s-3.54,1.38-3.54,4.06V260h-5.66v-20H614v2.83a7.06,7.06,0,0,1,5.85-3.2c4.28,0,6.78,2.83,6.78,7.41V260Z"/><path class="cls-3" d="M638.53,260.4a14,14,0,0,1-8.57-3l2.42-3.72a11.29,11.29,0,0,0,6.29,2.38c1.64,0,2.38-.6,2.38-1.49v-.07c0-1.23-1.94-1.64-4.13-2.31-2.79-.82-6-2.12-6-6v-.08c0-4.06,3.28-6.33,7.3-6.33a13.82,13.82,0,0,1,7.45,2.31L643.55,246a11.83,11.83,0,0,0-5.4-1.86c-1.38,0-2.09.6-2.09,1.38v.07c0,1.12,1.9,1.64,4.06,2.38,2.79.93,6,2.27,6,5.92V254C646.16,258.39,642.85,260.4,638.53,260.4Z"/><path class="cls-3" d="M662.7,260V257.2a7.06,7.06,0,0,1-5.85,3.2c-4.28,0-6.78-2.83-6.78-7.41V240.06h5.66V251.2c0,2.68,1.27,4.06,3.43,4.06s3.54-1.38,3.54-4.06V240.06h5.66v20Z"/><path class="cls-3" d="M698.23,260V248.89c0-2.68-1.19-4.06-3.31-4.06s-3.43,1.38-3.43,4.06V260h-5.66V248.89c0-2.68-1.19-4.06-3.31-4.06s-3.43,1.38-3.43,4.06V260h-5.66v-20h5.66v2.83a7.13,7.13,0,0,1,5.88-3.2,6,6,0,0,1,5.62,3.17,8.22,8.22,0,0,1,6.56-3.17c4.21,0,6.74,2.53,6.74,7.34v13Z"/><path class="cls-3" d="M718.61,260.48c-6.18,0-10.76-4.58-10.76-10.32v-.08a10.48,10.48,0,0,1,10.84-10.39c6.18,0,10.76,4.58,10.76,10.32v.07A10.48,10.48,0,0,1,718.61,260.48Zm5.25-10.39a5.3,5.3,0,0,0-5.25-5.51,5.11,5.11,0,0,0-5.18,5.44v.07a5.3,5.3,0,0,0,5.25,5.51,5.11,5.11,0,0,0,5.18-5.44Z"/><path class="cls-3" d="M740.55,260.4a14,14,0,0,1-8.57-3l2.42-3.72a11.29,11.29,0,0,0,6.29,2.38c1.64,0,2.38-.6,2.38-1.49v-.07c0-1.23-1.94-1.64-4.13-2.31-2.79-.82-6-2.12-6-6v-.08c0-4.06,3.28-6.33,7.3-6.33a13.82,13.82,0,0,1,7.45,2.31L745.57,246a11.83,11.83,0,0,0-5.4-1.86c-1.38,0-2.09.6-2.09,1.38v.07c0,1.12,1.9,1.64,4.06,2.38,2.79.93,6,2.27,6,5.92V254C748.18,258.39,744.87,260.4,740.55,260.4Z"/><path class="cls-4" d="M326.91,120.32A45.13,45.13,0,0,1,296.82,109l9.22-11c6.38,5.27,13.07,8.61,21.17,8.61,6.38,0,10.23-2.53,10.23-6.69v-.2c0-4-2.43-6-14.28-9C308.88,87,299.66,83,299.66,69v-.2c0-12.87,10.33-21.38,24.82-21.38a41,41,0,0,1,26.34,9l-8.1,11.75c-6.28-4.36-12.46-7-18.44-7s-9.12,2.74-9.12,6.18v.2c0,4.66,3,6.18,15.3,9.32,14.39,3.75,22.49,8.91,22.49,21.27v.2C352.94,112.42,342.21,120.32,326.91,120.32Z"/><path class="cls-4" d="M386.28,120.32A45.13,45.13,0,0,1,356.19,109l9.22-11c6.38,5.27,13.07,8.61,21.17,8.61,6.38,0,10.23-2.53,10.23-6.69v-.2c0-4-2.43-6-14.28-9C368.24,87,359,83,359,69v-.2c0-12.87,10.33-21.38,24.82-21.38a41,41,0,0,1,26.34,9l-8.1,11.75c-6.28-4.36-12.46-7-18.44-7s-9.12,2.74-9.12,6.18v.2c0,4.66,3,6.18,15.3,9.32,14.39,3.75,22.49,8.91,22.49,21.27v.2C412.31,112.42,401.57,120.32,386.28,120.32Z"/><path class="cls-4" d="M472.69,119.3l-6.48-15.9h-30l-6.48,15.9h-15.9l30.39-71.42H458.6L489,119.3ZM451.21,66.63l-9.42,23h18.84Z"/><path class="cls-3" d="M523.13,119.3H495.48V48.39h27.66c22.29,0,37.68,15.3,37.68,35.25v.2C560.82,103.81,545.42,119.3,523.13,119.3Zm21.38-35.46c0-12.56-8.61-21.37-21.37-21.37H511.08v42.75h12.05c12.76,0,21.38-8.61,21.38-21.17Z"/><path class="cls-3" d="M570.95,119.3V48.39h15.6V119.3Z"/><path class="cls-3" d="M600.53,119.3V48.39h15.6V119.3Z"/><path class="cls-4" d="M186.69,134.62a12,12,0,1,1,3.24,16.66,12,12,0,0,1-3.24-16.66Z"/><path class="cls-4" d="M202.34,177.92s-.93-12-15.61-21.89-26.15-6.26-26.15-6.26c-11,14.06-13.63,36.58-12.22,63.16,25.17-8.66,45.07-19.53,54-35Z"/><path class="cls-4" d="M106.23,134.62A12,12,0,1,0,103,151.29a12,12,0,0,0,3.24-16.66Z"/><path class="cls-4" d="M90.58,177.92s.93-12,15.61-21.89,26.15-6.26,26.15-6.26c11,14.06,13.63,36.58,12.22,63.16-25.17-8.66-45.07-19.53-54-35Z"/><path class="cls-3" d="M132.48,111.93a14,14,0,1,1,14,14,14,14,0,0,1-14-14Z"/><path class="cls-5" d="M175.78,143.54s-8.71-11-29.32-11-29.32,11-29.32,11c-1.48,20.74,10.65,44.19,29.32,68.94,18.67-24.75,30.8-48.19,29.32-68.94Z"/><path class="cls-3" d="M146.35,131.24a40.74,40.74,0,0,1,16.44,2.59,49.64,49.64,0,0,1,13.85,8.44s1.35,11.26-1.69,21.28-12.27,27.92-19,37.6l-9.34,13.4-14.41-20.71s-9.46-16.44-11-21.16-5.29-14.41-5.18-19.59.11-10.24.11-10.24S129.46,130.12,146.35,131.24Z"/><path class="cls-2" d="M146.46,130.13c-21.54,0-30.84,11.41-31.23,11.9l-.47.59-.05.75c-.74,10.36,1.65,21.53,7.31,34.14,4.93,11,12.29,22.92,22.5,36.44l1.95,2.58,1.95-2.58c10.2-13.52,17.56-25.44,22.5-36.44,5.66-12.61,8.05-23.78,7.31-34.14l-.05-.75-.47-.59c-.39-.49-9.69-11.9-31.23-11.9Zm0,2.44c20.61,0,29.32,11,29.32,11,1.48,20.74-10.65,44.19-29.32,68.94-18.67-24.75-30.8-48.19-29.32-68.94,0,0,8.71-11,29.32-11"/><path class="cls-2" d="M161.25,151a2.24,2.24,0,1,1,2.24-2.24,2.24,2.24,0,0,1-2.24,2.24Zm2-7.53a12.26,12.26,0,0,0-2.78-7.12c-2.63-3.15-6.83-4.91-12.48-5.25-13.7-.82-17.55,7.83-18.44,10.64a6.58,6.58,0,0,0-2.3,2.2c-3.85,5.69.63,13.24.83,13.56l2.92-1.77c0-.06-3.52-6-.92-9.88.31-.46.92-1.21,1.51-1.22.79,0,1.88,1.18,2.36,2l.06.11.1.12c.09.1,2.15,2.64,1,8l3.34.72c1.4-6.49-1.06-10.09-1.65-10.85a8.85,8.85,0,0,0-3.12-2.95c1.13-2.57,4.54-7.34,14.08-6.76,4.51.27,7.77,1.56,9.69,3.82a8.37,8.37,0,0,1,1.9,4.67,5.65,5.65,0,1,0,3.91,0Z"/></svg>