<?xml version="1.0" encoding="UTF-8" standalone="no"?>
<svg
   xmlns:dc="http://purl.org/dc/elements/1.1/"
   xmlns:cc="http://creativecommons.org/ns#"
   xmlns:rdf="http://www.w3.org/1999/02/22-rdf-syntax-ns#"
   xmlns:svg="http://www.w3.org/2000/svg"
   xmlns="http://www.w3.org/2000/svg"
   xmlns:sodipodi="http://sodipodi.sourceforge.net/DTD/sodipodi-0.dtd"
   xmlns:inkscape="http://www.inkscape.org/namespaces/inkscape"
   id="icons"
   viewBox="0 0 212.66 212.65999"
   version="1.1"
   sodipodi:docname="logo-icon.svg"
   width="212.66"
   height="212.66"
   inkscape:version="0.92.1 r15371">
  <metadata
     id="metadata157">
    <rdf:RDF>
      <cc:Work
         rdf:about="">
        <dc:format>image/svg+xml</dc:format>
        <dc:type
           rdf:resource="http://purl.org/dc/dcmitype/StillImage" />
        <dc:title>SSADII Icon</dc:title>
      </cc:Work>
    </rdf:RDF>
  </metadata>
  <sodipodi:namedview
     pagecolor="#ffffff"
     bordercolor="#666666"
     borderopacity="1"
     objecttolerance="10"
     gridtolerance="10"
     guidetolerance="10"
     inkscape:pageopacity="0"
     inkscape:pageshadow="2"
     inkscape:window-width="504"
     inkscape:window-height="564"
     id="namedview155"
     showgrid="false"
     fit-margin-top="0"
     fit-margin-left="0"
     fit-margin-right="0"
     fit-margin-bottom="0"
     inkscape:zoom="0.44065657"
     inkscape:cx="114.92921"
     inkscape:cy="96.328949"
     inkscape:window-x="714"
     inkscape:window-y="229"
     inkscape:window-maximized="0"
     inkscape:current-layer="icons" />
  <defs
     id="defs4">
    <style
       id="style2">.cls-1{fill:#9f2243;}.cls-2{fill:#fff;}.cls-3{fill:#3c3c3b;}.cls-4{fill:#ac955c;}.cls-5{fill:none;}</style>
  </defs>
  <title
     id="title6">SSADII Icon</title>
  <rect
     class="cls-1"
     x="0"
     y="0"
     width="212.66"
     height="212.66"
     rx="39.259998"
     ry="39.259998"
     id="rect8"
     style="fill:#9f2243" />
  <circle
     class="cls-2"
     cx="106.33002"
     cy="106.33"
     r="76.699997"
     id="circle10"
     style="fill:#ffffff" />
  <path
     class="cls-4"
     d="m 146.56001,87.499998 a 12,12 0 1 1 3.24,16.660002 12,12 0 0 1 -3.24,-16.660002 z"
     id="path136"
     inkscape:connector-curvature="0"
     style="fill:#ac955c" />
  <path
     class="cls-4"
     d="m 162.21001,130.8 c 0,0 -0.93,-12 -15.61,-21.89 -14.68,-9.890002 -26.15,-6.26 -26.15,-6.26 -11,14.06 -13.63,36.58 -12.22,63.16 25.17,-8.66 45.07,-19.53 54,-35 z"
     id="path138"
     inkscape:connector-curvature="0"
     style="fill:#ac955c" />
  <path
     class="cls-4"
     d="m 66.100009,87.499998 a 12,12 0 1 0 -3.23,16.670002 12,12 0 0 0 3.24,-16.660002 z"
     id="path140"
     inkscape:connector-curvature="0"
     style="fill:#ac955c" />
  <path
     class="cls-4"
     d="m 50.450009,130.8 c 0,0 0.93,-12 15.61,-21.89 14.68,-9.890002 26.15,-6.26 26.15,-6.26 11.000001,14.06 13.630001,36.58 12.220001,63.16 -25.170001,-8.66 -45.070001,-19.53 -54.000001,-35 z"
     id="path142"
     inkscape:connector-curvature="0"
     style="fill:#ac955c" />
  <path
     class="cls-3"
     d="M 92.350009,64.810002 A 14,14 0 1 1 106.35001,78.809998 14,14 0 0 1 92.350009,64.810002 Z"
     id="path144"
     inkscape:connector-curvature="0"
     style="fill:#3c3c3b" />
  <path
     class="cls-5"
     d="m 135.65001,96.419998 c 0,0 -8.71,-11 -29.32,-11 -20.610001,0 -29.320001,11 -29.320001,11 -1.48,20.740002 10.65,44.190002 29.320001,68.940002 18.67,-24.75 30.8,-48.19 29.32,-68.940002 z"
     id="path146"
     inkscape:connector-curvature="0"
     style="fill:none" />
  <path
     class="cls-3"
     d="m 106.22001,84.119998 a 40.74,40.74 0 0 1 16.44,2.59 49.64,49.64 0 0 1 13.85,8.44 c 0,0 1.35,11.260002 -1.69,21.280002 -3.04,10.02 -12.27,27.92 -19,37.6 l -9.34,13.4 -14.410001,-20.71 c 0,0 -9.46,-16.44 -11,-21.16 -1.54,-4.72 -5.29,-14.41 -5.18,-19.59 0.11,-5.18 0.11,-10.240002 0.11,-10.240002 0,0 13.33,-12.73 30.220001,-11.61 z"
     id="path148"
     inkscape:connector-curvature="0"
     style="fill:#3c3c3b" />
  <path
     class="cls-2"
     d="m 106.33001,83.009998 c -21.540001,0 -30.840001,11.41 -31.230001,11.9 l -0.47,0.59 -0.05,0.75 c -0.74,10.360002 1.65,21.530002 7.31,34.140002 4.93,11 12.29,22.92 22.500001,36.44 l 1.95,2.58 1.95,-2.58 c 10.2,-13.52 17.56,-25.44 22.5,-36.44 5.66,-12.61 8.05,-23.78 7.31,-34.140002 l -0.05,-0.75 -0.47,-0.59 c -0.39,-0.49 -9.69,-11.9 -31.23,-11.9 z m 0,2.44 c 20.61,0 29.32,11 29.32,11 1.48,20.740002 -10.65,44.190002 -29.32,68.940002 C 87.660009,140.64 75.530009,117.2 77.010009,96.449998 c 0,0 8.71,-11 29.320001,-11"
     id="path150"
     inkscape:connector-curvature="0"
     style="fill:#ffffff" />
  <path
     class="cls-2"
     d="m 121.12001,103.88 a 2.24,2.24 0 1 1 2.24,-2.24 2.24,2.24 0 0 1 -2.24,2.24 z m 2,-7.530002 a 12.26,12.26 0 0 0 -2.78,-7.12 c -2.63,-3.15 -6.83,-4.91 -12.48,-5.25 -13.700001,-0.82 -17.550001,7.83 -18.440001,10.64 a 6.58,6.58 0 0 0 -2.3,2.2 c -3.85,5.690002 0.63,13.240002 0.83,13.560002 l 2.92,-1.77 c 0,-0.06 -3.52,-6 -0.92,-9.880002 0.31,-0.46 0.92,-1.21 1.51,-1.22 0.79,0 1.88,1.18 2.36,2 l 0.06,0.11 0.1,0.12 c 0.09,0.1 2.15,2.640002 1,8.000002 l 3.34,0.72 c 1.4,-6.49 -1.06,-10.090002 -1.65,-10.850002 a 8.85,8.85 0 0 0 -3.12,-2.95 c 1.13,-2.57 4.54,-7.34 14.080001,-6.76 4.51,0.27 7.77,1.56 9.69,3.82 a 8.37,8.37 0 0 1 1.9,4.67 5.65,5.65 0 1 0 3.91,0 z"
     id="path152"
     inkscape:connector-curvature="0"
     style="fill:#ffffff" />
</svg>
